<svg width="56" height="14" viewBox="0 0 56 14" fill="none" xmlns="http://www.w3.org/2000/svg">
<path d="M0.692 0.399999H3.032V13H0.692V0.399999ZM8.99605 2.38H4.82005V0.399999H15.512V2.38H11.336V13H8.99605V2.38ZM21.0511 13.18C20.0791 13.18 19.1371 13.042 18.2251 12.766C17.3251 12.49 16.6111 12.124 16.0831 11.668L16.8931 9.85C17.4091 10.258 18.0391 10.594 18.7831 10.858C19.5391 11.11 20.2951 11.236 21.0511 11.236C21.9871 11.236 22.6831 11.086 23.1391 10.786C23.6071 10.486 23.8411 10.09 23.8411 9.598C23.8411 9.238 23.7091 8.944 23.4451 8.716C23.1931 8.476 22.8691 8.29 22.4731 8.158C22.0771 8.026 21.5371 7.876 20.8531 7.708C19.8931 7.48 19.1131 7.252 18.5131 7.024C17.9251 6.796 17.4151 6.442 16.9831 5.962C16.5631 5.47 16.3531 4.81 16.3531 3.982C16.3531 3.286 16.5391 2.656 16.9111 2.092C17.2951 1.516 17.8651 1.06 18.6211 0.723999C19.3891 0.387999 20.3251 0.219999 21.4291 0.219999C22.1971 0.219999 22.9531 0.316 23.6971 0.508C24.4411 0.7 25.0831 0.976 25.6231 1.336L24.8851 3.154C24.3331 2.83 23.7571 2.584 23.1571 2.416C22.5571 2.248 21.9751 2.164 21.4111 2.164C20.4871 2.164 19.7971 2.32 19.3411 2.632C18.8971 2.944 18.6751 3.358 18.6751 3.874C18.6751 4.234 18.8011 4.528 19.0531 4.756C19.3171 4.984 19.6471 5.164 20.0431 5.296C20.4391 5.428 20.9791 5.578 21.6631 5.746C22.5991 5.962 23.3671 6.19 23.9671 6.43C24.5671 6.658 25.0771 7.012 25.4971 7.492C25.9291 7.972 26.1451 8.62 26.1451 9.436C26.1451 10.132 25.9531 10.762 25.5691 11.326C25.1971 11.89 24.6271 12.34 23.8591 12.676C23.0911 13.012 22.1551 13.18 21.0511 13.18ZM40.0394 13L40.0214 4.648L35.8814 11.56H34.8374L30.6974 4.756V13H28.4654V0.399999H30.3914L35.3954 8.752L40.3094 0.399999H42.2354L42.2534 13H40.0394ZM55.1068 11.038V13H45.6568V0.399999H54.8548V2.362H47.9968V5.638H54.0808V7.564H47.9968V11.038H55.1068Z" fill="currentColor"/>
</svg>
