<svg width="22" height="21" viewBox="0 0 22 21" fill="none" xmlns="http://www.w3.org/2000/svg">
<path fill-rule="evenodd" clip-rule="evenodd" d="M14.4 4.4C14.4 6.27777 12.8778 7.8 11 7.8C9.12222 7.8 7.59999 6.27777 7.59999 4.4C7.59999 2.52223 9.12222 1 11 1C12.8778 1 14.4 2.52223 14.4 4.4ZM15.4 4.4C15.4 6.83005 13.43 8.8 11 8.8C8.56993 8.8 6.59999 6.83005 6.59999 4.4C6.59999 1.96995 8.56993 0 11 0C13.43 0 15.4 1.96995 15.4 4.4ZM18.0711 13.8288C19.7092 15.467 20.7203 17.615 20.9499 19.8999H11L1.05009 19.8999C1.27966 17.615 2.29077 15.467 3.92893 13.8288C5.8043 11.9535 8.34784 10.8999 11 10.8999C13.6522 10.8999 16.1957 11.9535 18.0711 13.8288ZM18.7782 13.1217C20.604 14.9476 21.7217 17.3493 21.9545 19.8999C21.9847 20.231 22 20.5647 22 20.8999H21H11L1 20.8999H0C0 20.5647 0.0153015 20.231 0.0455178 19.8999C0.278269 17.3493 1.39596 14.9476 3.22183 13.1217C5.28473 11.0588 8.08262 9.89992 11 9.89992C13.9174 9.89992 16.7153 11.0588 18.7782 13.1217Z" fill="currentColor"/>
</svg>
